<mxfile host="app.diagrams.net" agent="Mozilla/5.0 (Windows NT 10.0; Win64; x64) AppleWebKit/537.36 (KHTML, like Gecko) Chrome/136.0.0.0 Safari/537.36 Edg/136.0.0.0" version="27.0.1">
  <diagram name="Page-1" id="KIhRItnllu4ck2-6ld26">
    <mxGraphModel dx="2058" dy="1146" grid="1" gridSize="10" guides="1" tooltips="1" connect="1" arrows="1" fold="1" page="1" pageScale="1" pageWidth="850" pageHeight="1100" math="0" shadow="0">
      <root>
        <mxCell id="0" />
        <mxCell id="1" parent="0" />
        <mxCell id="54qYl2xDdTYJJKRxaSf4-1" value="" style="rounded=1;whiteSpace=wrap;html=1;" parent="1" vertex="1">
          <mxGeometry x="5" y="100" width="440" height="760" as="geometry" />
        </mxCell>
        <mxCell id="54qYl2xDdTYJJKRxaSf4-2" value="" style="rounded=0;whiteSpace=wrap;html=1;" parent="1" vertex="1">
          <mxGeometry x="500" y="310" width="840" height="550" as="geometry" />
        </mxCell>
        <mxCell id="54qYl2xDdTYJJKRxaSf4-3" value="" style="endArrow=none;html=1;rounded=0;entryX=1;entryY=1;entryDx=0;entryDy=0;" parent="1" source="54qYl2xDdTYJJKRxaSf4-9" target="54qYl2xDdTYJJKRxaSf4-7" edge="1">
          <mxGeometry width="50" height="50" relative="1" as="geometry">
            <mxPoint x="10" y="780" as="sourcePoint" />
            <mxPoint x="460" y="780" as="targetPoint" />
          </mxGeometry>
        </mxCell>
        <mxCell id="54qYl2xDdTYJJKRxaSf4-4" value="" style="ellipse;whiteSpace=wrap;html=1;aspect=fixed;" parent="1" vertex="1">
          <mxGeometry x="215" y="800" width="30" height="30" as="geometry" />
        </mxCell>
        <mxCell id="54qYl2xDdTYJJKRxaSf4-5" value="" style="whiteSpace=wrap;html=1;aspect=fixed;" parent="1" vertex="1">
          <mxGeometry x="90" y="800" width="30" height="30" as="geometry" />
        </mxCell>
        <mxCell id="54qYl2xDdTYJJKRxaSf4-6" value="" style="triangle;whiteSpace=wrap;html=1;flipH=1;" parent="1" vertex="1">
          <mxGeometry x="360" y="800" width="20" height="30" as="geometry" />
        </mxCell>
        <mxCell id="54qYl2xDdTYJJKRxaSf4-7" value="" style="rounded=0;whiteSpace=wrap;html=1;" parent="1" vertex="1">
          <mxGeometry x="10" y="730" width="440" height="50" as="geometry" />
        </mxCell>
        <mxCell id="54qYl2xDdTYJJKRxaSf4-8" value="" style="rounded=0;whiteSpace=wrap;html=1;" parent="1" vertex="1">
          <mxGeometry x="50" y="740" width="320" height="30" as="geometry" />
        </mxCell>
        <mxCell id="54qYl2xDdTYJJKRxaSf4-9" value="3" style="rounded=1;whiteSpace=wrap;html=1;" parent="1" vertex="1">
          <mxGeometry x="380" y="740" width="30" height="30" as="geometry" />
        </mxCell>
        <mxCell id="54qYl2xDdTYJJKRxaSf4-12" value="" style="sketch=0;pointerEvents=1;shadow=0;dashed=0;html=1;strokeColor=none;fillColor=#505050;labelPosition=center;verticalLabelPosition=bottom;verticalAlign=top;outlineConnect=0;align=center;shape=mxgraph.office.concepts.home;" parent="1" vertex="1">
          <mxGeometry x="20" y="745" width="20" height="20" as="geometry" />
        </mxCell>
        <mxCell id="54qYl2xDdTYJJKRxaSf4-14" value="" style="shape=image;html=1;verticalAlign=top;verticalLabelPosition=bottom;labelBackgroundColor=#ffffff;imageAspect=0;aspect=fixed;image=https://cdn4.iconfinder.com/data/icons/basic-user-interface-2/512/User_Interface-03-128.png" parent="1" vertex="1">
          <mxGeometry x="400" y="725" width="60" height="60" as="geometry" />
        </mxCell>
        <mxCell id="54qYl2xDdTYJJKRxaSf4-15" value="" style="endArrow=none;html=1;rounded=0;entryX=1.005;entryY=0.079;entryDx=0;entryDy=0;entryPerimeter=0;exitX=-0.005;exitY=0.079;exitDx=0;exitDy=0;exitPerimeter=0;" parent="1" source="54qYl2xDdTYJJKRxaSf4-1" target="54qYl2xDdTYJJKRxaSf4-1" edge="1">
          <mxGeometry width="50" height="50" relative="1" as="geometry">
            <mxPoint x="390" y="200" as="sourcePoint" />
            <mxPoint x="440" y="150" as="targetPoint" />
          </mxGeometry>
        </mxCell>
        <mxCell id="54qYl2xDdTYJJKRxaSf4-16" value="2:51" style="text;html=1;align=center;verticalAlign=middle;whiteSpace=wrap;rounded=0;" parent="1" vertex="1">
          <mxGeometry x="20" y="120" width="60" height="30" as="geometry" />
        </mxCell>
        <mxCell id="54qYl2xDdTYJJKRxaSf4-17" value="" style="image;sketch=0;aspect=fixed;html=1;points=[];align=center;fontSize=12;image=img/lib/mscae/Notification.svg;" parent="1" vertex="1">
          <mxGeometry x="70" y="125" width="20" height="20" as="geometry" />
        </mxCell>
        <mxCell id="54qYl2xDdTYJJKRxaSf4-18" value="" style="verticalLabelPosition=bottom;html=1;verticalAlign=top;align=center;strokeColor=none;fillColor=#00BEF2;shape=mxgraph.azure.azure_alert;" parent="1" vertex="1">
          <mxGeometry x="100" y="125" width="20" height="20" as="geometry" />
        </mxCell>
        <mxCell id="54qYl2xDdTYJJKRxaSf4-19" value="" style="html=1;verticalLabelPosition=bottom;align=center;labelBackgroundColor=#ffffff;verticalAlign=top;strokeWidth=2;strokeColor=#0080F0;shadow=0;dashed=0;shape=mxgraph.ios7.icons.battery;" parent="1" vertex="1">
          <mxGeometry x="380" y="125" width="30" height="12" as="geometry" />
        </mxCell>
        <mxCell id="54qYl2xDdTYJJKRxaSf4-20" value="" style="html=1;verticalLabelPosition=bottom;align=center;labelBackgroundColor=#ffffff;verticalAlign=top;strokeWidth=2;strokeColor=#0080F0;shadow=0;dashed=0;shape=mxgraph.ios7.icons.wifi;pointerEvents=1" parent="1" vertex="1">
          <mxGeometry x="350" y="125" width="10" height="10" as="geometry" />
        </mxCell>
        <mxCell id="54qYl2xDdTYJJKRxaSf4-21" value="" style="html=1;verticalLabelPosition=bottom;align=center;labelBackgroundColor=#ffffff;verticalAlign=top;strokeWidth=2;strokeColor=#0080F0;shadow=0;dashed=0;shape=mxgraph.ios7.icons.location;" parent="1" vertex="1">
          <mxGeometry x="320" y="120" width="20" height="20" as="geometry" />
        </mxCell>
        <mxCell id="54qYl2xDdTYJJKRxaSf4-22" value="" style="ellipse;whiteSpace=wrap;html=1;aspect=fixed;" parent="1" vertex="1">
          <mxGeometry x="200" y="125" width="20" height="20" as="geometry" />
        </mxCell>
        <mxCell id="54qYl2xDdTYJJKRxaSf4-25" value="https://www.someurl.com/index" style="text;html=1;align=center;verticalAlign=middle;whiteSpace=wrap;rounded=0;" parent="1" vertex="1">
          <mxGeometry x="110" y="740" width="60" height="30" as="geometry" />
        </mxCell>
        <mxCell id="54qYl2xDdTYJJKRxaSf4-26" value="Logo" style="rounded=0;whiteSpace=wrap;html=1;" parent="1" vertex="1">
          <mxGeometry x="25" y="180" width="115" height="70" as="geometry" />
        </mxCell>
        <mxCell id="54qYl2xDdTYJJKRxaSf4-29" value="User Management (Conditional, only Owners can make Admin, but admin can make general users)" style="rounded=0;whiteSpace=wrap;html=1;fillColor=#d5e8d4;strokeColor=#82b366;" parent="1" vertex="1">
          <mxGeometry x="25" y="270" width="170" height="85" as="geometry" />
        </mxCell>
        <mxCell id="54qYl2xDdTYJJKRxaSf4-33" value="" style="endArrow=none;html=1;rounded=0;entryX=1;entryY=1;entryDx=0;entryDy=0;" parent="1" target="54qYl2xDdTYJJKRxaSf4-34" edge="1">
          <mxGeometry width="50" height="50" relative="1" as="geometry">
            <mxPoint x="900" y="370.8241758241759" as="sourcePoint" />
            <mxPoint x="950" y="395" as="targetPoint" />
          </mxGeometry>
        </mxCell>
        <mxCell id="54qYl2xDdTYJJKRxaSf4-34" value="" style="rounded=0;whiteSpace=wrap;html=1;" parent="1" vertex="1">
          <mxGeometry x="500" y="345" width="840" height="50" as="geometry" />
        </mxCell>
        <mxCell id="54qYl2xDdTYJJKRxaSf4-35" value="" style="rounded=0;whiteSpace=wrap;html=1;" parent="1" vertex="1">
          <mxGeometry x="600" y="355" width="600" height="30" as="geometry" />
        </mxCell>
        <mxCell id="54qYl2xDdTYJJKRxaSf4-37" value="" style="sketch=0;pointerEvents=1;shadow=0;dashed=0;html=1;strokeColor=none;fillColor=#505050;labelPosition=center;verticalLabelPosition=bottom;verticalAlign=top;outlineConnect=0;align=center;shape=mxgraph.office.concepts.home;" parent="1" vertex="1">
          <mxGeometry x="570" y="360" width="20" height="20" as="geometry" />
        </mxCell>
        <mxCell id="54qYl2xDdTYJJKRxaSf4-39" value="https://www.someurl.com/index" style="text;html=1;align=center;verticalAlign=middle;whiteSpace=wrap;rounded=0;" parent="1" vertex="1">
          <mxGeometry x="690" y="355" width="60" height="30" as="geometry" />
        </mxCell>
        <mxCell id="54qYl2xDdTYJJKRxaSf4-40" value="" style="sketch=0;html=1;aspect=fixed;strokeColor=none;shadow=0;fillColor=#3B8DF1;verticalAlign=top;labelPosition=center;verticalLabelPosition=bottom;shape=mxgraph.gcp2.lock" parent="1" vertex="1">
          <mxGeometry x="610" y="360" width="15.6" height="20" as="geometry" />
        </mxCell>
        <mxCell id="54qYl2xDdTYJJKRxaSf4-41" value="" style="shape=image;html=1;verticalAlign=top;verticalLabelPosition=bottom;labelBackgroundColor=#ffffff;imageAspect=0;aspect=fixed;image=https://cdn4.iconfinder.com/data/icons/ionicons/512/icon-refresh-128.png" parent="1" vertex="1">
          <mxGeometry x="540" y="360" width="20" height="20" as="geometry" />
        </mxCell>
        <mxCell id="54qYl2xDdTYJJKRxaSf4-44" value="" style="shape=flexArrow;endArrow=classic;html=1;rounded=0;width=10;endSize=3.67;endWidth=10;" parent="1" edge="1">
          <mxGeometry width="50" height="50" relative="1" as="geometry">
            <mxPoint x="530" y="370" as="sourcePoint" />
            <mxPoint x="510" y="370" as="targetPoint" />
          </mxGeometry>
        </mxCell>
        <mxCell id="54qYl2xDdTYJJKRxaSf4-45" value="Tab" style="rounded=1;whiteSpace=wrap;html=1;" parent="1" vertex="1">
          <mxGeometry x="540" y="315" width="100" height="30" as="geometry" />
        </mxCell>
        <mxCell id="54qYl2xDdTYJJKRxaSf4-46" value="" style="shape=mxgraph.sysml.x;" parent="1" vertex="1">
          <mxGeometry x="1310" y="325" width="10" height="10" as="geometry" />
        </mxCell>
        <mxCell id="54qYl2xDdTYJJKRxaSf4-50" value="" style="rounded=0;whiteSpace=wrap;html=1;" parent="1" vertex="1">
          <mxGeometry x="1290" y="325" width="10" height="10" as="geometry" />
        </mxCell>
        <mxCell id="54qYl2xDdTYJJKRxaSf4-51" value="-" style="text;html=1;align=center;verticalAlign=middle;whiteSpace=wrap;rounded=0;" parent="1" vertex="1">
          <mxGeometry x="1245" y="315" width="60" height="30" as="geometry" />
        </mxCell>
        <mxCell id="54qYl2xDdTYJJKRxaSf4-52" value="Company Logo" style="rounded=0;whiteSpace=wrap;html=1;" parent="1" vertex="1">
          <mxGeometry x="500" y="395" width="140" height="85" as="geometry" />
        </mxCell>
        <mxCell id="54qYl2xDdTYJJKRxaSf4-57" value="" style="rounded=0;whiteSpace=wrap;html=1;" parent="1" vertex="1">
          <mxGeometry x="500" y="830" width="840" height="30" as="geometry" />
        </mxCell>
        <mxCell id="54qYl2xDdTYJJKRxaSf4-58" value="" style="rounded=0;whiteSpace=wrap;html=1;" parent="1" vertex="1">
          <mxGeometry x="770" y="835" width="20" height="20" as="geometry" />
        </mxCell>
        <mxCell id="54qYl2xDdTYJJKRxaSf4-59" value="Search" style="rounded=1;whiteSpace=wrap;html=1;" parent="1" vertex="1">
          <mxGeometry x="805" y="835" width="90" height="20" as="geometry" />
        </mxCell>
        <mxCell id="54qYl2xDdTYJJKRxaSf4-60" value="" style="image;aspect=fixed;perimeter=ellipsePerimeter;html=1;align=center;shadow=0;dashed=0;spacingTop=3;image=img/lib/active_directory/windows_server_2.svg;" parent="1" vertex="1">
          <mxGeometry x="907" y="835" width="16" height="20" as="geometry" />
        </mxCell>
        <mxCell id="54qYl2xDdTYJJKRxaSf4-61" value="" style="image;aspect=fixed;html=1;points=[];align=center;fontSize=12;image=img/lib/azure2/intune/Device_Security_Windows.svg;" parent="1" vertex="1">
          <mxGeometry x="930" y="835" width="20" height="20" as="geometry" />
        </mxCell>
        <mxCell id="54qYl2xDdTYJJKRxaSf4-62" value="" style="image;aspect=fixed;html=1;points=[];align=center;fontSize=12;image=img/lib/azure2/other/WAC.svg;" parent="1" vertex="1">
          <mxGeometry x="960" y="835" width="18.24" height="20" as="geometry" />
        </mxCell>
        <mxCell id="YDMQlUoo1nOSEKsgSWmY-1" value="Owner Only" style="rounded=0;whiteSpace=wrap;html=1;fillColor=#dae8fc;strokeColor=#6c8ebf;" parent="1" vertex="1">
          <mxGeometry x="520" y="50" width="300" height="40" as="geometry" />
        </mxCell>
        <mxCell id="YDMQlUoo1nOSEKsgSWmY-2" value="Admin Only" style="rounded=0;whiteSpace=wrap;html=1;fillColor=#d5e8d4;strokeColor=#82b366;" parent="1" vertex="1">
          <mxGeometry x="520" y="100" width="300" height="40" as="geometry" />
        </mxCell>
        <mxCell id="YDMQlUoo1nOSEKsgSWmY-3" value="General User" style="rounded=0;whiteSpace=wrap;html=1;" parent="1" vertex="1">
          <mxGeometry x="520" y="150" width="300" height="40" as="geometry" />
        </mxCell>
        <mxCell id="YDMQlUoo1nOSEKsgSWmY-5" value="Customer Management" style="rounded=0;whiteSpace=wrap;html=1;" parent="1" vertex="1">
          <mxGeometry x="25" y="370" width="170" height="80" as="geometry" />
        </mxCell>
        <mxCell id="YDMQlUoo1nOSEKsgSWmY-6" value="Reports" style="rounded=0;whiteSpace=wrap;html=1;" parent="1" vertex="1">
          <mxGeometry x="240" y="370" width="180" height="80" as="geometry" />
        </mxCell>
        <mxCell id="YDMQlUoo1nOSEKsgSWmY-7" value="Migration Tool" style="rounded=0;whiteSpace=wrap;html=1;" parent="1" vertex="1">
          <mxGeometry x="20" y="630" width="170" height="80" as="geometry" />
        </mxCell>
        <mxCell id="YDMQlUoo1nOSEKsgSWmY-8" value="Log Off" style="rounded=0;whiteSpace=wrap;html=1;" parent="1" vertex="1">
          <mxGeometry x="320" y="670" width="100" height="30" as="geometry" />
        </mxCell>
        <mxCell id="YDMQlUoo1nOSEKsgSWmY-10" value="" style="shape=image;html=1;verticalAlign=top;verticalLabelPosition=bottom;labelBackgroundColor=#ffffff;imageAspect=0;aspect=fixed;image=https://cdn4.iconfinder.com/data/icons/evil-icons-user-interface/64/menu-128.png" parent="1" vertex="1">
          <mxGeometry x="387" y="180" width="33" height="33" as="geometry" />
        </mxCell>
        <mxCell id="YDMQlUoo1nOSEKsgSWmY-20" value="Order management" style="rounded=0;whiteSpace=wrap;html=1;" parent="1" vertex="1">
          <mxGeometry x="25" y="460" width="395" height="70" as="geometry" />
        </mxCell>
        <mxCell id="YDMQlUoo1nOSEKsgSWmY-21" value="Product Management" style="rounded=0;whiteSpace=wrap;html=1;fillColor=#d5e8d4;strokeColor=#82b366;" parent="1" vertex="1">
          <mxGeometry x="240" y="270" width="180" height="85" as="geometry" />
        </mxCell>
        <mxCell id="YDMQlUoo1nOSEKsgSWmY-22" value="User Management (Conditional, only Owners can make Admin, but admin can make general users)" style="rounded=0;whiteSpace=wrap;html=1;fillColor=#d5e8d4;strokeColor=#82b366;" parent="1" vertex="1">
          <mxGeometry x="520" y="520" width="170" height="85" as="geometry" />
        </mxCell>
        <mxCell id="YDMQlUoo1nOSEKsgSWmY-23" value="Customer Management" style="rounded=0;whiteSpace=wrap;html=1;" parent="1" vertex="1">
          <mxGeometry x="923" y="520" width="170" height="80" as="geometry" />
        </mxCell>
        <mxCell id="YDMQlUoo1nOSEKsgSWmY-24" value="Reports" style="rounded=0;whiteSpace=wrap;html=1;" parent="1" vertex="1">
          <mxGeometry x="1120" y="520" width="180" height="80" as="geometry" />
        </mxCell>
        <mxCell id="YDMQlUoo1nOSEKsgSWmY-25" value="Migration Tool" style="rounded=0;whiteSpace=wrap;html=1;" parent="1" vertex="1">
          <mxGeometry x="520" y="740" width="170" height="80" as="geometry" />
        </mxCell>
        <mxCell id="YDMQlUoo1nOSEKsgSWmY-26" value="Log Off" style="rounded=0;whiteSpace=wrap;html=1;" parent="1" vertex="1">
          <mxGeometry x="1220" y="790" width="100" height="30" as="geometry" />
        </mxCell>
        <mxCell id="YDMQlUoo1nOSEKsgSWmY-27" value="Order management" style="rounded=0;whiteSpace=wrap;html=1;" parent="1" vertex="1">
          <mxGeometry x="715" y="635" width="395" height="70" as="geometry" />
        </mxCell>
        <mxCell id="YDMQlUoo1nOSEKsgSWmY-28" value="Product Management" style="rounded=0;whiteSpace=wrap;html=1;fillColor=#d5e8d4;strokeColor=#82b366;" parent="1" vertex="1">
          <mxGeometry x="715" y="520" width="180" height="85" as="geometry" />
        </mxCell>
        <mxCell id="YDMQlUoo1nOSEKsgSWmY-29" value="" style="shape=image;html=1;verticalAlign=top;verticalLabelPosition=bottom;labelBackgroundColor=#ffffff;imageAspect=0;aspect=fixed;image=https://cdn4.iconfinder.com/data/icons/evil-icons-user-interface/64/menu-128.png" parent="1" vertex="1">
          <mxGeometry x="1287" y="410" width="33" height="33" as="geometry" />
        </mxCell>
        <mxCell id="x5Y8-QrJqmgyTtYUXGgs-1" value="User management only available to admin +" style="text;html=1;align=center;verticalAlign=middle;whiteSpace=wrap;rounded=0;" parent="1" vertex="1">
          <mxGeometry x="140" y="220" width="60" height="30" as="geometry" />
        </mxCell>
        <mxCell id="x5Y8-QrJqmgyTtYUXGgs-2" value="Product management only available to admin+" style="text;html=1;align=center;verticalAlign=middle;whiteSpace=wrap;rounded=0;" parent="1" vertex="1">
          <mxGeometry x="300" y="220" width="60" height="30" as="geometry" />
        </mxCell>
        <mxCell id="-Z0bnTvEZyEubWUs6qza-2" value="Order Management should be prominent, the most important part of the application" style="text;html=1;align=center;verticalAlign=middle;whiteSpace=wrap;rounded=0;" vertex="1" parent="1">
          <mxGeometry x="290" y="530" width="130" height="90" as="geometry" />
        </mxCell>
      </root>
    </mxGraphModel>
  </diagram>
</mxfile>
